<?xml version="1.0" encoding="UTF-8"?><svg id="Layer_2" xmlns="http://www.w3.org/2000/svg" viewBox="0 0 450 272"><g id="Layer_1-2"><rect width="450" height="272" fill="#fff"/><path d="M197.832,78.259l-2.796,14.01c-.334,1.641-1.945,2.705-3.586,2.401-1.641-.334-2.705-1.945-2.37-3.586l5.47-27.413c.334-1.671-.729-3.252-2.37-3.586-1.671-.334-3.252.729-3.586,2.37l-3.161,15.803h-12.095c-5.014,0-9.117,4.103-9.117,9.117v3.708l-14.253,3.556c-5.926,1.489-10.059,6.777-10.059,12.885,0,7.324,5.956,13.281,13.281,13.281h44.46c3.951,0,7.324-2.553,8.57-6.078.365-.942.547-1.975.547-3.039v-24.312c0-1.064-.182-2.097-.517-3.039-1.246-3.464-4.559-6.017-8.418-6.078h0ZM164.221,114.727h-11.031c-3.981,0-7.203-3.221-7.203-7.203,0-3.313,2.249-6.169,5.44-6.99l12.794-3.191v17.383Z" fill="#010101"/><path d="M215.883,120.808c1.671,0,3.039-1.368,3.039-3.039v-3.039h6.078v3.039c0,1.671,1.368,3.039,3.039,3.039s3.039-1.368,3.039-3.039v-3.039h6.078v3.039c0,1.671,1.368,3.039,3.039,3.039s3.039-1.368,3.039-3.039v-3.039h6.078v3.039c0,1.671,1.368,3.039,3.039,3.039s3.039-1.368,3.039-3.039v-3.039h6.078v3.039c0,1.671,1.368,3.039,3.039,3.039s3.039-1.368,3.039-3.039v-3.343c1.945-.395,3.738-1.185,5.318-2.219l2.401,2.37c.577.577,1.368.881,2.127.881.79,0,1.55-.304,2.158-.881,1.185-1.185,1.185-3.1,0-4.285l-2.37-2.401c1.033-1.58,1.823-3.373,2.219-5.318h3.343c1.671,0,3.039-1.368,3.039-3.039s-1.368-3.039-3.039-3.039h-3.343c-.395-1.945-1.185-3.738-2.219-5.318l2.37-2.401c1.185-1.185,1.185-3.1,0-4.285s-3.1-1.185-4.285,0l-2.401,2.37c-1.58-1.033-3.373-1.823-5.318-2.219v-3.343c0-1.671-1.368-3.039-3.039-3.039s-3.039,1.368-3.039,3.039v3.039h-6.078v-3.039c0-1.671-1.368-3.039-3.039-3.039s-3.039,1.368-3.039,3.039v3.039h-6.078v-3.039c0-1.671-1.368-3.039-3.039-3.039s-3.039,1.368-3.039,3.039v3.039h-6.078v-3.039c0-1.671-1.368-3.039-3.039-3.039s-3.039,1.368-3.039,3.039v3.039h-6.078v-3.039c0-1.671-1.368-3.039-3.039-3.039s-3.039,1.368-3.039,3.039v36.468c0,1.671,1.368,3.039,3.039,3.039h0Z" fill="#010101"/><path d="M234.12,169.612c-2.34-1.368-4.376-2.917-6.078-4.619v15.742c0,11.67-7.841,22.064-19.054,25.284-1.459.425-2.401,1.823-2.188,3.343.213,1.489,1.489,2.614,3.009,2.614h57.491c-7.552-10.583-11.768-23.301-11.89-36.552-8.274-.41-15.62-2.5-21.288-5.812h-.002Z" fill="#010101"/><path d="M307.873,206.02c-11.214-3.221-19.054-13.615-19.054-25.284v-15.742c-1.702,1.702-3.738,3.252-6.078,4.619-5.66,3.305-12.992,5.394-21.258,5.804.137,13.486,4.938,26.364,13.47,36.559h32.1c1.656-.008,2.986-1.444,3.039-3.039-.084-1.345-.957-2.492-2.219-2.917h0Z" fill="#010101"/><path d="M258.432,132.964c-17.041,0-30.39,8.008-30.39,18.234s13.349,18.234,30.39,18.234,30.39-8.008,30.39-18.234-13.349-18.234-30.39-18.234ZM266.941,153.02c-3.039,4.049-7.62,4.255-8.509,4.255-5.06,0-7.977-3.54-8.509-4.255-1.01-1.345-.737-3.244.608-4.255,1.352-1.003,3.252-.737,4.255.608.053.076,1.39,1.823,3.647,1.823.091,0,2.294-.023,3.647-1.823,1.003-1.345,2.91-1.611,4.255-.608,1.345,1.003,1.618,2.91.608,4.255Z" fill="#010101"/></g></svg>