<?xml version="1.0" encoding="UTF-8"?><svg id="Layer_2" xmlns="http://www.w3.org/2000/svg" viewBox="0 0 450 272"><g id="Layer_1-2"><rect width="450" height="272" fill="#fff"/><path d="M338.322,104.116l-6.924,5.769h-162.351l-26.914,5.769-11.535-1.923h-26.914v50.003l65.362-34.618-7.689,23.079,15.379,7.693,11.535-30.772h26.914c0,13.833,5.605,26.366,14.659,35.432,4.526,4.532,9.905,8.193,15.889,10.728l9.041-15.402c-3.988-1.689-7.588-4.132-10.604-7.151-6.032-6.039-9.762-14.389-9.762-23.606h1.923l13.456-3.847h38.448v-7.693h57.778v-13.463h-7.692Z" fill="#010101"/><path d="M169.072,96.425v7.693h119.241v-7.693h-119.241Z" fill="#010101" fill-rule="evenodd"/></g></svg>