<?xml version="1.0" encoding="UTF-8"?><svg id="Layer_2" xmlns="http://www.w3.org/2000/svg" viewBox="0 0 450 272"><g id="Layer_1-2"><rect width="450" height="272" fill="#fff"/><path d="M337.619,112.219c.588,3.235-2.941,5.294-5.294,6.469-1.47.588-.294,2.941-2.353,3.823-1.764.588-4.411.883-5.881.883-3.528-.294-4.411-4.117-8.234-3.528-3.528.588-7.058,2.058-10.292,3.235-3.823,2.941-7.939,1.764-9.116,7.352-1.47,6.175-.588,14.41-.588,20.585,0,5.588,2.647,10.88,3.528,16.468,1.176,5.588,1.47,10.586,6.764,13.527,3.823,2.353,9.116.294,12.35,2.647,2.058,1.47,4.705,5.881.883,5.881-4.411,0-9.116.294-13.527.294-2.353,0-5.881-3.823-7.352-5.881-5.881-7.058-13.233-15.88-17.644-24.113-1.176-2.058-3.528-4.999-4.705-7.646-.294.588-.588.883-.883,1.47-3.528,5.588-6.764,10.88-11.175,15.88-2.058,2.058-10.292,11.175-4.705,13.527,4.705,2.058,9.999,1.764,12.35,7.058h-16.467c-4.705,0-9.999-9.117-7.058-13.528,4.411-6.469,3.528-16.762,2.941-24.113-.883-2.058-1.764-4.411-2.647-6.764-7.939,0-18.232,1.47-25.878,1.764,1.176,4.705,2.647,11.175.883,15.88-1.176,3.235-4.999,7.058-4.411,10.586.883,5.294,3.823,9.116,9.41,9.705,2.353.294,4.411-.588,6.469.588,14.41,7.939-10.586,8.234-13.821,4.999-4.117-4.117-15.88-3.528-16.468-10.292-.294-2.941,1.47-5.881,1.47-8.822,0-6.469-4.705-12.057-9.116-16.174-2.058-2.058-5.881-4.999-8.528-7.058-2.353,2.353-5.588,5.881-8.822,8.528-11.763,9.705-23.819,9.116-37.935,11.469-7.939,1.176-11.175,4.705-11.469,12.35-.294,5.588,4.705,4.411,8.528,6.175.588.294,4.411,5.294,2.647,5.294-3.235,0-15.586,1.764-16.174-1.47-.883-5.294-6.175-6.469-3.528-12.057,2.058-4.411,3.528-11.175,2.941-16.174-.588-4.411,5.294-2.647,7.646-2.353,4.705.883,7.058-.588,10.88-2.941,4.411-2.941,9.116-5.881,12.939-9.705,4.117-3.823,3.823-10.88,4.705-16.174-8.528,13.233-20.291,27.937-38.229,21.173-6.764-2.647-12.35-8.528-12.939-16.174-.588-6.764,2.941-15.586,10.88-15.586,2.353,0,5.294,1.176,7.058,2.941,2.058,2.353-.588,4.411-2.647,2.353-5.588-4.999-10.292,1.764-10.292,7.352.294,17.35,23.232,15.291,30.289,3.823,7.939-12.939,10.292-26.466,23.526-35.877,15.291-10.586,29.995-6.764,47.345-5.294,7.939.588,15.586.294,23.526-.588,8.234-.883,14.41-4.411,22.055-6.469,7.939-2.058,16.174-1.47,24.113.294,2.941.588,7.352,2.941,10.292,2.058,1.764-.294,4.705-1.764,6.175-.883-4.999-3.823,1.176-10.586,5.881-7.352,4.705,2.941,2.941,5.294,9.116,6.175,12.35,1.764,16.174,9.999,22.643,19.702.885.885,1.472,5.002-2.056,4.707h0Z" fill="#010101"/></g></svg>